<svg width="178" height="175" viewBox="0 0 178 175" fill="none" xmlns="http://www.w3.org/2000/svg">
<circle cx="89" cy="83" r="35" fill="white"/>
<g filter="url(#filter0_d_202_66)">
<path d="M75.368 84V82.176C76.456 81.312 77.496 80.44 78.488 79.56C79.48 78.68 80.36 77.816 81.128 76.968C81.912 76.104 82.528 75.264 82.976 74.448C83.424 73.616 83.648 72.816 83.648 72.048C83.648 71.536 83.56 71.056 83.384 70.608C83.208 70.144 82.92 69.776 82.52 69.504C82.12 69.216 81.584 69.072 80.912 69.072C79.904 69.072 79.144 69.392 78.632 70.032C78.136 70.672 77.896 71.44 77.912 72.336H75.44C75.456 71.152 75.704 70.16 76.184 69.36C76.68 68.56 77.336 67.952 78.152 67.536C78.984 67.12 79.92 66.912 80.96 66.912C82.544 66.912 83.808 67.36 84.752 68.256C85.712 69.136 86.192 70.368 86.192 71.952C86.192 72.896 85.96 73.832 85.496 74.76C85.048 75.688 84.456 76.584 83.72 77.448C83 78.296 82.224 79.096 81.392 79.848C80.56 80.6 79.768 81.28 79.016 81.888H86.696V84H75.368ZM88.4784 84V67.2H91.0224V74.4L97.6464 67.2H100.79L94.5744 73.896L100.934 84H97.8384L92.7504 75.84L91.0224 77.712V84H88.4784Z" fill="#141414"/>
</g>
<g filter="url(#filter1_d_202_66)">
<path d="M70.5141 100V94.048H71.4261L71.5101 95.188C71.6941 94.796 71.9741 94.484 72.3501 94.252C72.7261 94.02 73.1901 93.904 73.7421 93.904V94.96H73.4661C73.1141 94.96 72.7901 95.024 72.4941 95.152C72.1981 95.272 71.9621 95.48 71.7861 95.776C71.6101 96.072 71.5221 96.48 71.5221 97V100H70.5141ZM76.8468 100.144C76.2788 100.144 75.7748 100.016 75.3348 99.76C74.8948 99.496 74.5468 99.132 74.2908 98.668C74.0428 98.204 73.9188 97.656 73.9188 97.024C73.9188 96.4 74.0428 95.856 74.2908 95.392C74.5388 94.92 74.8828 94.556 75.3228 94.3C75.7708 94.036 76.2868 93.904 76.8708 93.904C77.4468 93.904 77.9428 94.036 78.3588 94.3C78.7828 94.556 79.1068 94.896 79.3308 95.32C79.5548 95.744 79.6668 96.2 79.6668 96.688C79.6668 96.776 79.6628 96.864 79.6548 96.952C79.6548 97.04 79.6548 97.14 79.6548 97.252H74.9148C74.9388 97.708 75.0428 98.088 75.2268 98.392C75.4188 98.688 75.6548 98.912 75.9348 99.064C76.2228 99.216 76.5268 99.292 76.8468 99.292C77.2628 99.292 77.6108 99.196 77.8908 99.004C78.1708 98.812 78.3748 98.552 78.5028 98.224H79.4988C79.3388 98.776 79.0308 99.236 78.5748 99.604C78.1268 99.964 77.5508 100.144 76.8468 100.144ZM76.8468 94.756C76.3668 94.756 75.9388 94.904 75.5628 95.2C75.1948 95.488 74.9828 95.912 74.9268 96.472H78.6708C78.6468 95.936 78.4628 95.516 78.1188 95.212C77.7748 94.908 77.3508 94.756 76.8468 94.756ZM82.0045 100L79.7485 94.048H80.8045L82.5925 99.028L84.3925 94.048H85.4245L83.1685 100H82.0045ZM86.6783 92.728C86.4783 92.728 86.3103 92.664 86.1743 92.536C86.0463 92.4 85.9823 92.232 85.9823 92.032C85.9823 91.84 86.0463 91.68 86.1743 91.552C86.3103 91.424 86.4783 91.36 86.6783 91.36C86.8703 91.36 87.0343 91.424 87.1703 91.552C87.3063 91.68 87.3743 91.84 87.3743 92.032C87.3743 92.232 87.3063 92.4 87.1703 92.536C87.0343 92.664 86.8703 92.728 86.6783 92.728ZM86.1743 100V94.048H87.1823V100H86.1743ZM91.1334 100.144C90.5654 100.144 90.0614 100.016 89.6214 99.76C89.1814 99.496 88.8334 99.132 88.5774 98.668C88.3294 98.204 88.2054 97.656 88.2054 97.024C88.2054 96.4 88.3294 95.856 88.5774 95.392C88.8254 94.92 89.1694 94.556 89.6094 94.3C90.0574 94.036 90.5734 93.904 91.1574 93.904C91.7334 93.904 92.2294 94.036 92.6454 94.3C93.0694 94.556 93.3934 94.896 93.6174 95.32C93.8414 95.744 93.9534 96.2 93.9534 96.688C93.9534 96.776 93.9494 96.864 93.9414 96.952C93.9414 97.04 93.9414 97.14 93.9414 97.252H89.2014C89.2254 97.708 89.3294 98.088 89.5134 98.392C89.7054 98.688 89.9414 98.912 90.2214 99.064C90.5094 99.216 90.8134 99.292 91.1334 99.292C91.5494 99.292 91.8974 99.196 92.1774 99.004C92.4574 98.812 92.6614 98.552 92.7894 98.224H93.7854C93.6254 98.776 93.3174 99.236 92.8614 99.604C92.4134 99.964 91.8374 100.144 91.1334 100.144ZM91.1334 94.756C90.6534 94.756 90.2254 94.904 89.8494 95.2C89.4814 95.488 89.2694 95.912 89.2134 96.472H92.9574C92.9334 95.936 92.7494 95.516 92.4054 95.212C92.0614 94.908 91.6374 94.756 91.1334 94.756ZM95.775 100L94.035 94.048H95.043L96.303 98.716L97.695 94.048H98.835L100.239 98.716L101.487 94.048H102.507L100.767 100H99.735L98.271 95.092L96.807 100H95.775ZM105.422 100.144C104.71 100.144 104.118 99.964 103.646 99.604C103.174 99.244 102.898 98.756 102.818 98.14H103.85C103.914 98.452 104.078 98.724 104.342 98.956C104.614 99.18 104.978 99.292 105.434 99.292C105.858 99.292 106.17 99.204 106.37 99.028C106.57 98.844 106.67 98.628 106.67 98.38C106.67 98.02 106.538 97.78 106.274 97.66C106.018 97.54 105.654 97.432 105.182 97.336C104.862 97.272 104.542 97.18 104.222 97.06C103.902 96.94 103.634 96.772 103.418 96.556C103.202 96.332 103.094 96.04 103.094 95.68C103.094 95.16 103.286 94.736 103.67 94.408C104.062 94.072 104.59 93.904 105.254 93.904C105.886 93.904 106.402 94.064 106.802 94.384C107.21 94.696 107.446 95.144 107.51 95.728H106.514C106.474 95.424 106.342 95.188 106.118 95.02C105.902 94.844 105.61 94.756 105.242 94.756C104.882 94.756 104.602 94.832 104.402 94.984C104.21 95.136 104.114 95.336 104.114 95.584C104.114 95.824 104.238 96.012 104.486 96.148C104.742 96.284 105.086 96.4 105.518 96.496C105.886 96.576 106.234 96.676 106.562 96.796C106.898 96.908 107.17 97.08 107.378 97.312C107.594 97.536 107.702 97.864 107.702 98.296C107.71 98.832 107.506 99.276 107.09 99.628C106.682 99.972 106.126 100.144 105.422 100.144Z" fill="#141414"/>
</g>
<defs>
<filter id="filter0_d_202_66" x="5.36804" y="0.911987" width="165.566" height="157.088" filterUnits="userSpaceOnUse" color-interpolation-filters="sRGB">
<feFlood flood-opacity="0" result="BackgroundImageFix"/>
<feColorMatrix in="SourceAlpha" type="matrix" values="0 0 0 0 0 0 0 0 0 0 0 0 0 0 0 0 0 0 127 0" result="hardAlpha"/>
<feOffset dy="4"/>
<feGaussianBlur stdDeviation="35"/>
<feComposite in2="hardAlpha" operator="out"/>
<feColorMatrix type="matrix" values="0 0 0 0 0 0 0 0 0 0 0 0 0 0 0 0 0 0 0.1 0"/>
<feBlend mode="normal" in2="BackgroundImageFix" result="effect1_dropShadow_202_66"/>
<feBlend mode="normal" in="SourceGraphic" in2="effect1_dropShadow_202_66" result="shape"/>
</filter>
<filter id="filter1_d_202_66" x="0.514038" y="25.36" width="177.2" height="148.784" filterUnits="userSpaceOnUse" color-interpolation-filters="sRGB">
<feFlood flood-opacity="0" result="BackgroundImageFix"/>
<feColorMatrix in="SourceAlpha" type="matrix" values="0 0 0 0 0 0 0 0 0 0 0 0 0 0 0 0 0 0 127 0" result="hardAlpha"/>
<feOffset dy="4"/>
<feGaussianBlur stdDeviation="35"/>
<feComposite in2="hardAlpha" operator="out"/>
<feColorMatrix type="matrix" values="0 0 0 0 0 0 0 0 0 0 0 0 0 0 0 0 0 0 0.1 0"/>
<feBlend mode="normal" in2="BackgroundImageFix" result="effect1_dropShadow_202_66"/>
<feBlend mode="normal" in="SourceGraphic" in2="effect1_dropShadow_202_66" result="shape"/>
</filter>
</defs>
</svg>
