<svg width="197" height="167" viewBox="0 0 197 167" fill="none" xmlns="http://www.w3.org/2000/svg">
<circle cx="89" cy="80" r="57" fill="#FC8A11"/>
<path d="M64 86.1507L61.9259 84.0766V94.447L51.5556 84.0766L50 85.6322L60.3704 96.0026H50L52.0741 98.0766H64V86.1507Z" fill="white"/>
<g filter="url(#filter0_d_144_2600)">
<path d="M79.7019 90.6456C78.4909 90.9475 77.3646 90.9439 76.3229 90.6347C75.2811 90.3256 74.3865 89.7633 73.639 88.9479C72.8887 88.1209 72.3582 87.0844 72.0476 85.8386C71.7369 84.5927 71.7202 83.4343 71.9974 82.3635C72.2716 81.281 72.7961 80.3587 73.5707 79.5967C74.3454 78.8346 75.3382 78.3026 76.5491 78.0007C77.7601 77.6988 78.8864 77.7024 79.9281 78.0116C80.9699 78.3207 81.8601 78.8903 82.5988 79.7202C83.3463 80.5356 83.8753 81.5663 84.186 82.8121C84.4966 84.058 84.5148 85.2222 84.2405 86.3047C83.975 87.3726 83.4549 88.2876 82.6802 89.0497C81.9056 89.8117 80.9128 90.3437 79.7019 90.6456ZM79.2882 88.9864C80.1265 88.7774 80.8078 88.4096 81.332 87.8832C81.8678 87.3538 82.2233 86.6963 82.3985 85.9106C82.5736 85.1249 82.5407 84.2488 82.2997 83.2824C82.0587 82.316 81.6765 81.527 81.153 80.9155C80.6295 80.304 80.007 79.8903 79.2853 79.6745C78.5753 79.4558 77.8011 79.4509 76.9628 79.6599C76.1245 79.8689 75.4374 80.2381 74.9015 80.7675C74.3657 81.2968 74.0102 81.9544 73.8351 82.7401C73.6716 83.5229 73.7103 84.3975 73.9513 85.3639C74.1922 86.3303 74.5686 87.1207 75.0805 87.7352C75.604 88.3467 76.2265 88.7604 76.9482 88.9762C77.6698 89.192 78.4498 89.1954 79.2882 88.9864ZM87.0739 88.585L84.0256 76.3592L88.2348 75.3098C89.2012 75.0688 90.0336 75.0344 90.732 75.2066C91.442 75.3758 92.0181 75.7022 92.4602 76.1856C92.8994 76.6573 93.2031 77.2309 93.3715 77.9062C93.5602 78.663 93.5277 79.4008 93.2741 80.1195C93.032 80.8353 92.5194 81.4331 91.7362 81.9128L95.6319 86.4512L93.4836 86.9868L89.8804 82.6538L87.6972 83.1981L88.9252 88.1234L87.0739 88.585ZM87.3488 81.8009L89.6019 81.2392C90.4402 81.0302 91.0007 80.674 91.2833 80.1707C91.5776 79.6644 91.6434 79.0853 91.4809 78.4333C91.3183 77.7812 90.997 77.311 90.5169 77.0225C90.034 76.7225 89.3617 76.6798 88.5001 76.8947L86.2645 77.452L87.3488 81.8009ZM97.0011 86.1098L93.9529 73.8841L97.9175 72.8956C99.3497 72.5385 100.588 72.4956 101.633 72.767C102.689 73.0354 103.553 73.5744 104.225 74.3839C104.905 75.1789 105.403 76.2051 105.716 77.4626C106.027 78.7085 106.07 79.8479 105.845 80.881C105.629 81.8995 105.118 82.7752 104.311 83.5081C103.513 84.2265 102.398 84.7642 100.966 85.1213L97.0011 86.1098ZM98.4605 84.0763L100.504 83.5669C101.61 83.2911 102.438 82.8929 102.989 82.3722C103.551 81.8487 103.887 81.2145 103.998 80.4695C104.121 79.7216 104.065 78.876 103.83 77.9329C103.595 76.9898 103.246 76.211 102.784 75.5966C102.333 74.9793 101.736 74.5715 100.994 74.3731C100.261 74.1602 99.3414 74.1916 98.2352 74.4674L96.1918 74.9769L98.4605 84.0763ZM108.583 83.2222L105.535 70.9964L113.307 69.0586L113.681 70.5607L107.76 72.0369L108.71 75.8443L114.107 74.4987L114.472 75.9658L109.076 77.3114L110.06 81.2586L115.98 79.7824L116.355 81.2844L108.583 83.2222ZM117.862 80.9086L114.814 68.6829L119.023 67.6334C119.989 67.3925 120.822 67.3581 121.52 67.5302C122.23 67.6995 122.806 68.0258 123.248 68.5092C123.687 68.981 123.991 69.5545 124.16 70.2299C124.348 70.9867 124.316 71.7245 124.062 72.4432C123.82 73.159 123.308 73.7568 122.524 74.2365L126.42 78.7749L124.272 79.3105L120.668 74.9775L118.485 75.5218L119.713 80.447L117.862 80.9086ZM118.137 74.1246L120.39 73.5628C121.228 73.3538 121.789 72.9976 122.071 72.4943C122.366 71.9881 122.432 71.409 122.269 70.7569C122.106 70.1049 121.785 69.6346 121.305 69.3462C120.822 69.0461 120.15 69.0035 119.288 69.2183L117.053 69.7757L118.137 74.1246Z" fill="white"/>
</g>
<defs>
<filter id="filter0_d_144_2600" x="0.471191" y="0.339554" width="196.001" height="165.821" filterUnits="userSpaceOnUse" color-interpolation-filters="sRGB">
<feFlood flood-opacity="0" result="BackgroundImageFix"/>
<feColorMatrix in="SourceAlpha" type="matrix" values="0 0 0 0 0 0 0 0 0 0 0 0 0 0 0 0 0 0 127 0" result="hardAlpha"/>
<feOffset dy="4"/>
<feGaussianBlur stdDeviation="35"/>
<feComposite in2="hardAlpha" operator="out"/>
<feColorMatrix type="matrix" values="0 0 0 0 0 0 0 0 0 0 0 0 0 0 0 0 0 0 0.1 0"/>
<feBlend mode="normal" in2="BackgroundImageFix" result="effect1_dropShadow_144_2600"/>
<feBlend mode="normal" in="SourceGraphic" in2="effect1_dropShadow_144_2600" result="shape"/>
</filter>
</defs>
</svg>
